<svg xmlns="http://www.w3.org/2000/svg" xmlns:xlink="http://www.w3.org/1999/xlink" width="91" height="79" viewBox="0 0 91 79">
    <defs>
        <path id="a" d="M.126.063h18.71V25.35H.125z"/>
    </defs>
    <g fill="none" fill-rule="evenodd">
        <path fill="#FFF" d="M26.59 71.925l-4.612-.022-.007-9.591-.036-1.341c-.002-1.932-1.155-3.389-2.91-3.531a3.112 3.112 0 0 0-1.15.116 2.83 2.83 0 0 0-.438.143 2.857 2.857 0 0 0-1.107.812 2.664 2.664 0 0 0-.35.563c-.227.479-.323 1.022-.364 1.575-.011.15-.018.303-.023.455-.007.213-.007.424-.007.63l.007 10.168h-4.597l.009-10.168c0-.206-.002-.417-.009-.63a9.628 9.628 0 0 0-.023-.452c-.04-.554-.137-1.1-.362-1.578a2.722 2.722 0 0 0-.351-.563 2.847 2.847 0 0 0-1.107-.812 2.82 2.82 0 0 0-.437-.143 3.12 3.12 0 0 0-1.15-.116c-1.757.142-2.91 1.599-2.911 3.53l-.036 1.342-.008 9.591L0 71.925V62.09c.001-.469.009-.94.032-1.41.004-.105.011-.206.017-.308.169-2.579 1.173-4.774 3.393-6.12 1.923-1.166 4.442-1.531 6.591-.853 1.377.435 2.276 1.274 3.212 2.349l.05.061.05-.061c.935-1.075 1.835-1.914 3.213-2.349 2.148-.678 4.666-.313 6.59.853 2.22 1.346 3.225 3.541 3.394 6.12.006.102.012.203.016.307.023.47.03.942.033 1.411v9.835zM86.94 58.632v7.597c0 1.97 1.4 2.005 4.06 1.862v4.27c-6.357.732-8.694-1.13-8.694-6.132v-7.597h-3.124V54.11h3.124v-2.224l4.634-4.72v6.944H91v4.523h-4.06z"/>
        <g transform="translate(28.364 53.65)">
            <mask id="b" fill="#fff">
                <use xlink:href="#a"/>
            </mask>
            <path fill="#FFF" d="M13.865.063L9.872 12.197 5.198.063H.126l7.379 17.473c-.864 2.457-2.233 3.499-4.715 3.465v4.331c4.607.25 7.628-2.023 9.496-7.22l6.55-18.05h-4.971z" mask="url(#b)"/>
        </g>
        <path fill="#FFF" d="M71.5 71.925h4.727V53.65H71.5zM62.39 66.626c-.95.946-2.153 1.416-3.608 1.416-1.456.007-2.658-.47-3.608-1.416-.95-.98-1.42-2.213-1.42-3.704s.47-2.724 1.42-3.67c.95-.98 2.152-1.45 3.608-1.45 1.455 0 2.658.47 3.607 1.45.984.946 1.456 2.179 1.456 3.67 0 1.49-.472 2.723-1.456 3.704m3.533-10.492c-1.715-1.852-3.826-2.799-6.272-2.799-2.549 0-4.524.872-5.904 2.649v-9.41h-.13v.007l-4.57 4.555v20.875h4.7v-2.145c1.387 1.777 3.355 2.649 5.904 2.649 2.439 0 4.557-.906 6.272-2.757 1.749-1.852 2.623-4.14 2.623-6.83 0-2.689-.874-4.942-2.623-6.794M70.91 48.042l3.251-3.236 3.248 3.249-3.252 3.236zM67.955 22.293l-8.306 8.364h-.015c-3.558-3.564-8.434-5.778-13.839-5.778-5.404 0-10.288 2.214-13.845 5.778h-.015l-8.299-8.364L45.796 0l22.159 22.293z"/>
        <path fill="#FFF" d="M56.727 32.965l-11.22 11.248-.003.003-11.231-11.251a15.699 15.699 0 0 1 11.223-4.666h.004a15.684 15.684 0 0 1 11.227 4.666"/>
    </g>
</svg>
