<?xml version="1.0" encoding="UTF-8"?>
<svg width="16px" height="16px" viewBox="0 0 16 16" version="1.1" xmlns="http://www.w3.org/2000/svg" xmlns:xlink="http://www.w3.org/1999/xlink">
    <!-- Generator: Sketch 51.2 (57519) - http://www.bohemiancoding.com/sketch -->
    <title>question-circle</title>
    <desc>Created with Sketch.</desc>
    <defs>
        <path d="M16,8 C16,12.4192581 12.4179677,16 8,16 C3.58203226,16 0,12.4192581 0,8 C0,3.58332258 3.58203226,0 8,0 C12.4179677,0 16,3.58332258 16,8 Z M8.21467742,2.64516129 C6.45670968,2.64516129 5.33548387,3.38570968 4.45503226,4.70187097 C4.34096774,4.8723871 4.37912903,5.10235484 4.5426129,5.22632258 L5.66193548,6.07503226 C5.82983871,6.20235484 6.06906452,6.17206452 6.19951613,6.00658065 C6.77577419,5.27567742 7.17090323,4.85183871 8.048,4.85183871 C8.707,4.85183871 9.52212903,5.27596774 9.52212903,5.915 C9.52212903,6.39809677 9.12332258,6.64619355 8.47264516,7.011 C7.71380645,7.4363871 6.70967742,7.96583871 6.70967742,9.29032258 L6.70967742,9.41935484 C6.70967742,9.63312903 6.883,9.80645161 7.09677419,9.80645161 L8.90322581,9.80645161 C9.117,9.80645161 9.29032258,9.63312903 9.29032258,9.41935484 L9.29032258,9.37635484 C9.29032258,8.45822581 11.9737419,8.42 11.9737419,5.93548387 C11.9737419,4.06445161 10.0329355,2.64516129 8.21467742,2.64516129 Z M8,10.6451613 C7.18177419,10.6451613 6.51612903,11.3108065 6.51612903,12.1290323 C6.51612903,12.9472258 7.18177419,13.6129032 8,13.6129032 C8.81822581,13.6129032 9.48387097,12.9472258 9.48387097,12.1290323 C9.48387097,11.3108065 8.81822581,10.6451613 8,10.6451613 Z" id="path-1"></path>
    </defs>
    <g id="Page-1" stroke="none" stroke-width="1" fill="none" fill-rule="evenodd">
        <g id="MyBit-Dropzone-Create-New-1" transform="translate(-840.000000, -394.000000)">
            <g id="question-circle" transform="translate(840.000000, 394.000000)">
                <mask id="mask-2" fill="white">
                    <use xlink:href="#path-1"></use>
                </mask>
                <use id="Mask" fill="#1890FF" fill-rule="nonzero" xlink:href="#path-1"></use>
            </g>
        </g>
    </g>
</svg>
